<mxfile host="app.diagrams.net" modified="2023-12-20T14:48:02.625Z" agent="Mozilla/5.0 (Windows NT 10.0; Win64; x64) AppleWebKit/537.36 (KHTML, like Gecko) Chrome/120.0.0.0 Safari/537.36" version="22.1.11" etag="XqJw8p4VedX7BsNTqAgq" type="github">
  <diagram name="Страница — 1" id="gbo-fA5z5gwC5bCS6hT2">
    <mxGraphModel>
      <root>
        <mxCell id="0" />
        <mxCell id="1" parent="0" />
      </root>
    </mxGraphModel>
  </diagram>
</mxfile>
